# xmcd
#
# Track frame offsets:
#	150
#	18050
#	36213
#	52502
#	69075
#	84980
#	108978
#	126054
#	141872
#	160487
#	179372
#
# Disc length: 2593 seconds
#
# Revision: 0
# Processed by: cddbd v1.5.2PL0 Copyright (c) Steve Scherf et al.
# Submitted via: EZCDAudioConverter 3.1.2.1
#
DISCID=7e0a1f0b
DTITLE=Dudley Taft - Skin And Bones
DYEAR=2015
DGENRE=Blues Rock
TTITLE0=Skin And Bones
TTITLE1=Lonesome Memphis Blues
TTITLE2=	\nAin't Nothing Gonna Stop Us Now
TTITLE3=Leland Mississippi Blues
TTITLE4=One Of These Days
TTITLE5=	\nFuzzy Dice\n
TTITLE6=Without You
TTITLE7=Space Cake
TTITLE8=Ain't About The Money
TTITLE9=Coming Home
TTITLE10=Mojo Woman
EXTD=
EXTT0=
EXTT1=
EXTT2=
EXTT3=
EXTT4=
EXTT5=
EXTT6=
EXTT7=
EXTT8=
EXTT9=
EXTT10=
PLAYORDER=
